<svg width="200" height="98" viewBox="0 0 200 98" fill="none" xmlns="http://www.w3.org/2000/svg">
<g clip-path="url(#clip0_0_360)">
<path d="M0.880859 4C0.880859 1.79086 2.67172 0 4.88086 0H195.881C198.09 0 199.881 1.79086 199.881 4V98H0.880859V4Z" fill="#2CC2B0"/>
<g clip-path="url(#clip1_0_360)">
<path d="M8.44257 58.7021C-1.77391 66.0137 -33.2641 82.2392 -77.4928 88.6484" stroke="#4E0571" stroke-width="6.43923"/>
<path d="M66.896 64.2517C67.0537 62.8845 67.7162 61.6343 68.8829 60.9023L74.8716 56.9449C78.8469 54.3099 81.3816 50.3473 82.2673 46.0329L82.3495 46.1775L82.6554 42.9905C82.7822 41.6025 83.7641 40.4782 85.1053 40.0869L91.4708 38.3031C92.1827 38.113 92.5967 37.365 92.3816 36.6844L87.8281 20.7142C87.6338 20.0028 86.882 19.5857 86.201 19.7967L73.4908 23.3336C72.6035 23.5842 71.6965 23.4642 70.8829 23.0055L62.8612 18.316C57.8978 15.4189 51.7421 15.5582 46.9615 18.7221L34.6536 26.8609C33.2804 27.7663 32.4214 29.2413 32.3148 30.8661L32.1976 32.573C31.9634 35.9869 30.1729 39.1115 27.3127 41.0243L1.16879 58.3706C0.580206 58.7777 0.41354 59.5584 0.803994 60.1786L6.39478 68.5433C6.80592 69.1328 7.58915 69.3033 8.20862 68.9169L10.5525 67.3706C12.0703 66.384 14.1315 66.7903 15.1283 68.3101L21.9522 78.5771C26.6284 85.5667 36.0892 87.52 43.0692 82.891L63.9677 69.0653C65.6198 67.9459 66.7166 66.1845 66.896 64.2517Z" fill="#4E0571"/>
<path d="M29.8755 73.2823L20.4816 59.4981L44.8088 43.1157L51.3928 45.1401L57.7444 54.5085C59.4813 57.0626 58.6591 60.6162 55.9434 62.4478L37.9666 74.536C35.1993 76.3775 31.5816 75.8156 29.8755 73.2823Z" fill="#4E0571"/>
<path d="M53.0891 47.3499L49.0173 46.9286C47.8731 46.8275 46.7481 47.3643 46.1376 48.3372L35.1283 66.2798C34.3005 67.642 34.7504 69.3737 36.1406 70.1763C37.469 70.9372 39.1505 70.5074 39.9369 69.2067L49.7878 52.9837L57.4773 53.967L53.0891 47.3499Z" fill="#4E0571"/>
<path d="M88.1926 23.7701L108.112 19.1964C109.319 18.9379 110.587 18.9885 111.741 19.4087L140.279 29.7038C140.918 29.9555 141.236 30.6163 141.069 31.2632L139.397 37.0121C139.189 37.7204 138.436 38.1058 137.714 37.8432L110.373 27.5055L91.0805 32.8143L88.1926 23.7701Z" fill="#4E0571"/>
<path d="M6.90016 48.0978C-3.31633 55.4094 -34.8065 71.6348 -79.0352 78.044" stroke="#FF8A66" stroke-width="6.43923"/>
<path d="M65.3538 50.6449C65.5115 49.2778 66.174 48.0276 67.3407 47.2955L73.3294 43.3381C77.3047 40.7031 79.8394 36.7405 80.7252 32.4261L80.8073 32.5708L81.1132 29.3837C81.24 27.9958 82.2219 26.8714 83.5631 26.4802L89.9286 24.6964C90.6405 24.5062 91.0545 23.7583 90.8395 23.0776L86.2859 7.10739C86.0916 6.39606 85.3398 5.97893 84.6589 6.1899L71.9486 9.72682C71.0613 9.97741 70.1543 9.85747 69.3407 9.39873L61.319 4.70926C56.3556 1.81215 50.1999 1.95143 45.4193 5.11538L33.1114 13.2541C31.7382 14.1595 30.8792 15.6346 30.7726 17.2593L30.6555 18.9663C30.4212 22.3802 28.6307 25.5047 25.7705 27.4175L-0.373398 44.7638C-0.961985 45.1709 -1.12865 45.9516 -0.738196 46.5718L4.85259 54.9366C5.26373 55.526 6.04696 55.6965 6.66643 55.3102L9.01028 53.7639C10.5281 52.7772 12.5893 53.1835 13.5861 54.7033L20.41 64.9703C25.0862 71.96 34.547 73.9132 41.527 69.2842L62.4255 55.4585C64.0776 54.3391 65.1744 52.5777 65.3538 50.6449Z" fill="#FD5622"/>
<path d="M28.3337 62.6734L18.9398 48.8893L43.2669 32.5069L49.851 34.5313L56.2026 43.8997C57.9395 46.4538 57.1173 50.0074 54.4016 51.839L36.4247 63.9272C33.6575 65.7687 30.0397 65.2067 28.3337 62.6734Z" fill="#4E0571"/>
<path d="M51.547 36.7433L47.4752 36.322C46.331 36.2209 45.206 36.7578 44.5955 37.7306L33.5862 55.6733C32.7584 57.0354 33.2083 58.7672 34.5984 59.5697C35.9268 60.3307 37.6084 59.9008 38.3948 58.6001L48.2457 42.3772L55.9352 43.3604L51.547 36.7433Z" fill="#FFCA28"/>
<path d="M86.65 10.1685L106.57 5.59476C107.776 5.33627 109.045 5.38688 110.198 5.80701L138.736 16.1022C139.375 16.3539 139.693 17.0147 139.527 17.6616L137.854 23.4104C137.647 24.1188 136.893 24.5041 136.172 24.2415L108.83 13.9038L89.5379 19.2127L86.65 10.1685Z" fill="#FF8A66"/>
<path d="M148.417 55.9963C145.339 48.6233 136.2 38.4653 136.2 38.4653C136.2 38.4653 127.923 49.3621 125.039 56.6888C124.898 57.0254 124.757 57.362 124.578 57.6995C123.62 59.7219 123.151 61.9922 123.319 64.3957C123.78 71.4223 129.758 76.987 136.836 77.0074C144.51 77.0139 150.66 70.7594 150.483 63.1707C150.438 61.2087 149.984 59.3303 149.164 57.6827C148.89 57.1335 148.653 56.5464 148.417 55.9963Z" fill="black"/>
</g>
</g>
<defs>
<clipPath id="clip0_0_360">
<path d="M0.880859 4C0.880859 1.79086 2.67172 0 4.88086 0H195.881C198.09 0 199.881 1.79086 199.881 4V98H0.880859V4Z" fill="white"/>
</clipPath>
<clipPath id="clip1_0_360">
<rect width="186.366" height="167.994" fill="white" transform="translate(28.7391 -58) rotate(33.966)"/>
</clipPath>
</defs>
</svg>
