<svg width="200" height="98" viewBox="0 0 200 98" fill="none" xmlns="http://www.w3.org/2000/svg">
<g clip-path="url(#clip0_0_300)">
<path d="M0 4C0 1.79086 1.79086 0 4 0H195C197.209 0 199 1.79086 199 4V98H0V4Z" fill="#82C43C"/>
<path d="M93.4189 111.599C111.08 101.801 117.455 79.5419 107.657 61.8808C97.86 44.2197 75.6005 37.8449 57.9394 47.6423C40.2783 57.4397 33.9035 79.6992 43.7009 97.3603C53.4983 115.021 75.7578 121.396 93.4189 111.599Z" fill="#024A84"/>
<path d="M80.3731 91.4056L95.2777 83.1373L97.8076 87.6977L77.1932 99.1334L58.9701 66.2839L64.6798 63.1164L80.3731 91.4056Z" fill="#024A84"/>
<path d="M93.428 111.835C75.7427 121.646 53.3768 115.241 43.5659 97.5553C33.7551 79.8699 40.1604 57.5041 57.8457 47.6932C75.5311 37.8824 97.8969 44.2876 107.708 61.973C117.519 79.6584 111.113 102.024 93.428 111.835ZM61.3525 54.0147C47.1523 61.8922 42.01 79.8483 49.8874 94.0485C57.7649 108.249 75.721 113.391 89.9212 105.514C104.121 97.6361 109.264 79.68 101.386 65.4798C93.5088 51.2796 75.5527 46.1372 61.3525 54.0147Z" fill="#024A84"/>
<path d="M47.4305 110.571C64.6643 121.102 87.172 115.668 97.7028 98.434C108.234 81.2001 102.8 58.6924 85.5657 48.1617C68.3318 37.6309 45.8242 43.0649 35.2934 60.2987C24.7626 77.5326 30.1966 100.04 47.4305 110.571Z" fill="#FEBF43"/>
<path d="M58.5616 89.2625L73.1057 98.1497L70.3865 102.6L50.2708 90.308L69.8579 58.2531L75.4295 61.6577L58.5616 89.2625Z" fill="white"/>
<path d="M47.2294 110.696C29.9719 100.15 24.5119 77.5351 35.0572 60.2775C45.6024 43.02 68.2176 37.5601 85.4752 48.1053C102.733 58.6505 108.193 81.2658 97.6474 98.5233C87.1022 115.781 64.4869 121.241 47.2294 110.696ZM81.7059 54.2739C67.8492 45.8068 49.6929 50.1902 41.2257 64.0469C32.7586 77.9035 37.142 96.0599 50.9987 104.527C64.8554 112.994 83.0117 108.611 91.4788 94.754C99.946 80.8973 95.5626 62.741 81.7059 54.2739Z" fill="#FFD488"/>
<path d="M95.9046 77.9293C95.9333 78.4814 95.919 79.0536 95.9048 79.6258C95.5004 95.8596 81.9682 108.734 65.7344 108.33C55.2015 108.067 46.0791 102.263 41.0948 93.7833L33.9604 95.8534C39.9532 107.263 51.8002 115.214 65.5756 115.557C85.7937 116.061 102.649 100.024 103.153 79.8064C103.186 78.4712 103.155 77.1769 103.038 75.8804L95.9046 77.9293Z" fill="#FFA910"/>
<path d="M101.579 68.2314C101.108 66.714 100.551 65.2369 99.9085 63.8001L92.8599 65.8299C93.5668 67.2471 94.1455 68.7036 94.6167 70.2209L101.579 68.2314Z" fill="#FFA910"/>
<path d="M38.0696 86.6059C37.6621 85.0902 37.3615 83.5346 37.2099 81.9616L30.1613 83.9915C30.3765 85.5661 30.6982 87.1221 31.1063 88.6167L38.0696 86.6059Z" fill="#FFA910"/>
<path d="M83.3519 11.972C83.7388 11.1495 83.9598 10.2336 83.9598 9.26168C83.9598 5.80374 81.1966 3 77.7888 3C75.1361 3 72.8703 4.70093 72.0045 7.09346C71.2677 6.73832 70.4572 6.5514 69.5914 6.5514C66.4414 6.5514 63.8809 9.14953 63.8809 12.3458C63.8809 15.5421 66.4414 18.1402 69.5914 18.1402C70.3651 18.1402 71.1019 17.9907 71.7651 17.7103C72.4098 20.7383 75.0624 23 78.2493 23C81.9151 23 84.8809 19.9907 84.8809 16.271C84.8809 14.6449 84.3098 13.1308 83.3519 11.972Z" fill="#024A84"/>
<path d="M36.3519 94.972C36.7388 94.1495 36.9598 93.2336 36.9598 92.2617C36.9598 88.8037 34.1966 86 30.7888 86C28.1361 86 25.8703 87.7009 25.0045 90.0935C24.2677 89.7383 23.4572 89.5514 22.5914 89.5514C19.4414 89.5514 16.8809 92.1495 16.8809 95.3458C16.8809 98.5421 19.4414 101.14 22.5914 101.14C23.3651 101.14 24.1019 100.991 24.7651 100.71C25.4098 103.738 28.0624 106 31.2493 106C34.9151 106 37.8809 102.991 37.8809 99.271C37.8809 97.6449 37.3098 96.1308 36.3519 94.972Z" fill="#024A84"/>
<path d="M78.4711 9.97196C78.8579 9.14953 79.0789 8.23364 79.0789 7.26168C79.0789 3.80374 76.3158 1 72.9079 1C70.2553 1 67.9895 2.70093 67.1237 5.09346C66.3868 4.73832 65.5763 4.5514 64.7105 4.5514C61.5605 4.5514 59 7.14953 59 10.3458C59 13.5421 61.5605 16.1402 64.7105 16.1402C65.4842 16.1402 66.2211 15.9907 66.8842 15.7103C67.5289 18.7383 70.1816 21 73.3684 21C77.0342 21 80 17.9907 80 14.271C80 12.6449 79.4289 11.1308 78.4711 9.97196Z" fill="#FBF3CF"/>
<path d="M31.4711 92.972C31.8579 92.1495 32.0789 91.2336 32.0789 90.2617C32.0789 86.8037 29.3158 84 25.9079 84C23.2553 84 20.9895 85.7009 20.1237 88.0935C19.3868 87.7383 18.5763 87.5514 17.7105 87.5514C14.5605 87.5514 12 90.1495 12 93.3458C12 96.5421 14.5605 99.1402 17.7105 99.1402C18.4842 99.1402 19.2211 98.9907 19.8842 98.7103C20.5289 101.738 23.1816 104 26.3684 104C30.0342 104 33 100.991 33 97.271C33 95.6449 32.4289 94.1308 31.4711 92.972Z" fill="#FBF3CF"/>
<path d="M111.696 28.1124C111.696 25.2793 109.402 22.9763 106.58 22.9763C105.854 22.9763 105.177 23.1254 104.55 23.3905C103.873 20.8556 101.562 19 98.8226 19C95.5381 19 92.8809 21.6675 92.8809 24.9645C92.8809 26.3893 93.376 27.6982 94.2012 28.7254C93.3595 29.9183 92.8809 31.3598 92.8809 32.9172C92.8809 36.9432 96.1323 40.2071 100.143 40.2071C104.071 40.2071 107.257 37.0923 107.405 33.1822C109.831 32.7846 111.696 30.6639 111.696 28.1124Z" fill="#024A84"/>
<path d="M105.696 28.1124C105.696 25.2793 103.402 22.9763 100.58 22.9763C99.8537 22.9763 99.177 23.1254 98.5498 23.3905C97.8731 20.8556 95.5624 19 92.8226 19C89.5381 19 86.8809 21.6675 86.8809 24.9645C86.8809 26.3893 87.376 27.6982 88.2012 28.7254C87.3595 29.9183 86.8809 31.3598 86.8809 32.9172C86.8809 36.9432 90.1323 40.2071 94.143 40.2071C98.0711 40.2071 101.257 37.0923 101.405 33.1822C103.831 32.7846 105.696 30.6639 105.696 28.1124Z" fill="#FBF3CF"/>
<path d="M92.1233 71.3289C92.1298 71.3772 92.1341 71.4093 92.1406 71.4575C92.6643 75.3638 96.1785 78.1164 99.9895 77.6055C103.8 77.0945 106.465 73.5135 105.942 69.6072C105.787 68.4498 105.373 67.3924 104.758 66.4931C105.666 65.4058 106.139 63.9351 105.934 62.4079C105.553 59.5626 103.002 57.5645 100.226 57.9367C98.4226 58.1785 96.9701 59.3715 96.2722 60.9542C95.0598 59.8894 93.4373 59.3378 91.7435 59.5649C88.5755 59.9896 86.3704 62.9526 86.8058 66.1998C87.1851 69.0291 89.4466 71.1314 92.1233 71.3289Z" fill="#024A84"/>
<path d="M17.9593 39.0667C18.0002 39.0295 18.0274 39.0046 18.0683 38.9673C21.3797 35.9462 21.6748 30.878 18.7274 27.6474C15.78 24.4167 10.7061 24.2469 7.39467 27.2679C6.41351 28.1631 5.69307 29.2345 5.25144 30.3925C3.64692 30.2486 1.96557 30.7594 0.670994 31.9405C-1.741 34.141 -1.95521 37.82 0.191645 40.1731C1.5865 41.702 3.64279 42.2864 5.57422 41.9129C5.36484 43.7361 5.90089 45.61 7.21084 47.0458C9.66092 49.7313 13.8592 49.8719 16.6119 47.3606C19.0102 45.1725 19.5094 41.6964 17.9593 39.0667Z" fill="#024A84"/>
<path d="M88.516 76.2069C88.5224 76.2551 88.5268 76.2872 88.5332 76.3355C89.0569 80.2418 92.5711 82.9944 96.3821 82.4834C100.193 81.9725 102.858 78.3914 102.334 74.4851C102.179 73.3277 101.766 72.2703 101.151 71.371C102.059 70.2838 102.532 68.813 102.327 67.2858C101.946 64.4405 99.3947 62.4424 96.6188 62.8146C94.8152 63.0564 93.3627 64.2494 92.6649 65.8321C91.4525 64.7673 89.8299 64.2157 88.1361 64.4428C84.9681 64.8676 82.7631 67.8306 83.1984 71.0778C83.5778 73.907 85.8393 76.0093 88.516 76.2069Z" fill="#FEE1A7"/>
<path d="M11.856 39.2757C11.8969 39.2384 11.9242 39.2136 11.965 39.1763C15.2764 36.1552 15.5715 31.087 12.6241 27.8563C9.67676 24.6257 4.60278 24.4558 1.29139 27.4769C0.310243 28.372 -0.410204 29.4434 -0.851827 30.6015C-2.45635 30.4576 -4.1377 30.9684 -5.43228 32.1495C-7.84428 34.35 -8.05848 38.029 -5.91163 40.3821C-4.51678 41.911 -2.46048 42.4954 -0.529054 42.1219C-0.738434 43.9451 -0.202381 45.819 1.10757 47.2548C3.55765 49.9403 7.75592 50.0809 10.5086 47.5696C12.907 45.3815 13.4061 41.9054 11.856 39.2757Z" fill="#FEE1A7"/>
<g clip-path="url(#clip1_0_300)">
<path d="M126.741 11.6132C122.249 13.8427 120.207 18.8818 122.179 22.8537C122.482 23.4647 122.864 24.0185 123.304 24.5076C118.924 28.4042 117.302 34.432 119.757 39.3787C120.191 40.2516 120.724 41.0385 121.344 41.7464C118.625 46.1786 118.072 51.549 120.368 56.1756C123.69 62.8681 131.873 65.7696 139.648 63.4156C139.701 64.5679 139.984 65.7148 140.519 66.7914C142.83 71.4471 148.969 73.1143 154.236 70.5001C158.842 68.2136 161.244 63.4311 160.227 59.1485L160.428 59.0488L137.196 12.2446L136.679 12.501C134.159 10.3428 130.228 9.88225 126.741 11.6132Z" fill="#024A84"/>
<path d="M154.613 63.5127C151.829 64.8946 148.442 63.7287 147.041 60.9062C146.622 60.0624 146.426 59.1625 146.431 58.2715C144.542 58.3932 142.664 57.3849 141.761 55.5663C141.415 54.868 141.248 54.1349 141.246 53.4105C136.027 55.0398 130.23 52.6222 127.688 47.5009C124.951 41.9868 127.01 35.3614 132.269 32.4429C130.737 31.8432 129.405 30.6729 128.611 29.0726C126.921 25.6681 128.275 21.5504 131.633 19.8836C134.991 18.2168 139.09 19.6277 140.78 23.0322C141.119 23.716 141.329 24.4277 141.439 25.153L146.357 35.0609C146.962 35.7759 147.503 36.5773 147.936 37.4503C148.37 38.3232 148.681 39.2386 148.884 40.1531L155.904 54.2947C156.379 54.7478 156.79 55.2874 157.101 55.913C157.411 56.5386 157.593 57.1921 157.666 57.8447L157.731 57.9756L157.674 58.0041C157.873 60.2442 156.722 62.4657 154.613 63.5127Z" fill="#024A84"/>
</g>
<g clip-path="url(#clip2_0_300)">
<path d="M129.072 -1.76423C124.58 0.465288 122.686 5.80287 124.84 10.1418C125.171 10.8093 125.581 11.4182 126.047 11.9597C121.73 15.984 120.3 22.399 122.982 27.8028C123.456 28.7564 124.028 29.6212 124.685 30.4044C122.08 35.0651 121.714 40.8133 124.222 45.8674C127.851 53.1783 136.291 56.596 144.121 54.3536C144.217 55.5932 144.548 56.8356 145.132 58.0117C147.656 63.0976 153.969 65.1143 159.236 62.5001C163.842 60.2136 166.112 55.1649 164.919 50.5274L165.12 50.4277L139.741 -0.701243L139.224 -0.444813C136.578 -2.85579 132.559 -3.49514 129.072 -1.76423Z" fill="#FBF3CF"/>
<path d="M159.363 55.0087C156.579 56.3906 153.087 55.0137 151.557 51.9303C151.099 51.0085 150.866 50.0347 150.838 49.0778C148.919 49.139 146.97 47.9869 145.984 46.0002C145.605 45.2374 145.408 44.4438 145.38 43.6656C140.125 45.2237 134.134 42.4135 131.357 36.819C128.367 30.7955 130.22 23.7546 135.467 20.8133C133.885 20.1128 132.486 18.8067 131.618 17.0584C129.772 13.3394 131 8.96627 134.357 7.29947C137.715 5.63268 141.941 7.29903 143.787 11.0181C144.158 11.7651 144.398 12.5372 144.536 13.3204L149.909 24.1438C150.551 24.9341 151.132 25.8148 151.605 26.7684C152.078 27.722 152.429 28.7167 152.67 29.7064L160.338 45.1548C160.839 45.659 161.277 46.2537 161.616 46.9371C161.955 47.6205 162.164 48.3291 162.263 49.0328L162.334 49.1758L162.277 49.2043C162.562 51.6178 161.472 53.9616 159.363 55.0087Z" fill="#FEE1A7"/>
</g>
</g>
<defs>
<clipPath id="clip0_0_300">
<path d="M0 4C0 1.79086 1.79086 0 4 0H195C197.209 0 199 1.79086 199 4V98H0V4Z" fill="white"/>
</clipPath>
<clipPath id="clip1_0_300">
<rect width="64.9711" height="89.8767" fill="white" transform="translate(132.768 81.1562) rotate(-116.399)"/>
</clipPath>
<clipPath id="clip2_0_300">
<rect width="70.9745" height="89.8767" fill="white" transform="translate(137.768 73.1562) rotate(-116.399)"/>
</clipPath>
</defs>
</svg>
